<svg display="none" xmlns="http://www.w3.org/2000/svg">

         <symbol id="planet" viewBox="0 0 52 52">
            <g>
                <path d="M26.5258 0.826111C12.4853 0.826111 1.05176 12.3 1.05176 26.39C1.05176 40.4799 12.4853 51.9539 26.5258 51.9539C40.5662 51.9539 51.9998 40.4799 51.9998 26.39C52.0455 12.3 40.6119 0.826111 26.5258 0.826111ZM50.8564 28.3635C50.582 31.7598 49.5759 34.9266 48.1124 37.6344C46.6946 40.3423 44.7738 42.637 42.8072 44.427C40.7949 46.2169 38.6911 47.502 36.6788 48.374C34.7122 49.246 32.8828 49.7509 31.3736 50.0262C29.8644 50.3016 28.6296 50.3475 27.8063 50.3934C26.9831 50.3934 26.5258 50.3934 26.5258 50.3934C26.5258 50.3934 26.9831 50.3475 27.8063 50.3475C28.6296 50.2557 29.8186 50.1639 31.3279 49.7968C32.8371 49.4755 34.6208 48.8788 36.4959 47.9609C38.4167 47.043 40.429 45.7121 42.3499 43.9221C44.225 42.1322 46.0086 39.8833 47.3349 37.2214C48.6612 34.5594 49.5301 31.4844 49.8045 28.2717C50.0332 25.0131 49.6216 21.6627 48.4783 18.4959C47.655 16.1553 46.3745 13.9523 44.8652 11.9788C45.3226 13.5392 45.8257 15.6963 46.0086 18.1747C45.9629 18.1288 45.9171 18.0829 45.8714 18.037C45.597 17.8075 45.2768 17.7157 45.0939 17.7157C45.0024 17.7157 44.911 17.7616 44.8652 17.7616C44.8195 17.7616 44.7738 17.8075 44.7738 17.8075C44.7738 17.8075 44.8195 17.8075 44.8652 17.8075C44.911 17.8075 45.0024 17.8534 45.0482 17.8993C45.1854 17.9911 45.3683 18.1288 45.5513 18.3582C45.6885 18.5877 45.8257 18.909 45.8714 19.2303C45.8714 19.2762 45.8714 19.3221 45.8714 19.368V19.5056C45.8714 19.5974 45.8714 19.6892 45.8714 19.7351C45.8714 19.9187 45.8257 20.0564 45.7799 20.24C45.7342 20.3777 45.6427 20.5153 45.5513 20.6071C45.4598 20.6989 45.4141 20.7448 45.2311 20.7907C45.1854 20.7907 45.0024 20.7907 44.911 20.7448C44.7738 20.6989 44.6823 20.6071 44.5451 20.5153C44.3164 20.3318 44.1792 20.1023 44.0878 19.9646C43.9963 19.8269 43.9506 19.6892 43.9506 19.6892C43.9506 19.6892 43.9506 19.7351 43.9506 19.781C43.9506 19.8269 43.9506 19.9187 43.9506 20.0105C43.9506 20.1941 43.9963 20.5153 44.1792 20.7907C44.2707 20.9284 44.4079 21.112 44.5908 21.2497C44.7738 21.3874 45.0024 21.525 45.3226 21.525C45.5513 21.525 45.9171 21.4333 46.1001 21.2497L46.1458 21.2038C46.1001 22.6265 45.9171 24.1411 45.597 25.7015C45.9171 25.7015 46.1458 25.5639 46.3287 25.4262C46.5117 25.2885 46.6489 25.1508 46.7403 25.0131C46.8318 24.8754 46.9233 24.7836 46.969 24.7377C47.0148 24.6918 47.0605 24.6459 47.0605 24.6459C47.0605 24.6459 47.0605 24.7377 47.0605 24.8295C47.0605 24.9672 47.0148 25.1508 46.9233 25.3344C46.8318 25.518 46.6489 25.7474 46.4202 25.931C46.1915 26.1146 45.9171 26.2064 45.597 26.2064C45.2768 26.2064 45.0024 26.1146 44.7738 25.931C44.5451 25.7474 44.4079 25.518 44.3164 25.3344C44.225 25.1508 44.1792 24.9213 44.1792 24.8295C44.1792 24.6918 44.1792 24.6459 44.1792 24.6459C44.1792 24.6459 43.9963 24.7377 43.9506 25.1508C43.9506 25.3803 43.9506 25.6557 44.1792 26.0228C44.3622 26.3441 44.7738 26.7113 45.3683 26.803C45.2768 27.0784 45.2311 27.3538 45.1396 27.6292C44.7738 27.6292 44.4536 27.7669 44.225 28.0422C43.8133 28.5471 43.9048 29.3273 44.4079 29.7404C44.042 30.6583 43.5847 31.6221 43.0816 32.54C43.5389 32.5859 43.9048 32.4482 44.1792 32.3105C44.5451 32.1269 44.7738 31.8975 44.9567 31.7139C45.1396 31.5303 45.2311 31.3926 45.3226 31.3467C45.4141 31.2549 45.4598 31.2549 45.4598 31.2549C45.4598 31.2549 45.4141 31.3467 45.3683 31.5762C45.2768 31.7598 45.1396 32.0351 44.911 32.3105C44.6823 32.5859 44.3622 32.8154 43.9506 32.999C43.7676 33.0907 43.5389 33.1366 43.3103 33.1366C43.0816 33.1366 42.8529 33.1366 42.6243 33.0449C42.3956 32.999 42.1669 32.8613 41.984 32.7695C41.801 32.6318 41.6181 32.4941 41.4809 32.3105C41.2065 31.9434 41.0693 31.5762 41.0236 31.209C40.9778 30.8419 40.9778 30.5665 41.0236 30.3829C41.0693 30.1993 41.0693 30.0616 41.0693 30.0616C41.0693 30.0616 41.0236 30.0616 40.9778 30.1534C40.8864 30.2452 40.7949 30.3829 40.7034 30.7042C40.6577 30.9795 40.5662 31.4385 40.7949 31.9893C40.8864 32.2646 41.0693 32.5859 41.3437 32.8613C41.6181 33.1366 41.984 33.412 42.4871 33.5497C42.3041 33.871 42.0754 34.1922 41.8925 34.5135C41.7553 34.5135 41.6181 34.5135 41.4809 34.5135C40.7034 34.6512 40.2003 35.2937 40.2918 35.9363C40.2918 35.9822 40.3375 36.074 40.3375 36.1199C39.7887 35.9822 39.2857 35.4773 39.1484 34.6971C38.9198 33.3202 37.7307 30.4747 36.6331 29.8781C35.444 29.2355 34.4835 30.796 35.1238 31.3008C36.5873 32.4023 35.8556 34.5135 35.9928 36.3493C36.0385 37.0837 36.4044 37.6803 36.7245 38.2311C35.9928 38.4605 35.5354 39.149 35.6726 39.7915C35.7184 40.1587 35.947 40.4341 36.2672 40.6176C35.8098 40.9848 35.3982 41.3061 34.9409 41.6273C34.9409 41.5814 34.9409 41.5355 34.9409 41.4897C34.8952 40.893 34.7122 40.3882 34.4835 40.021C34.2549 39.6538 33.9805 39.3785 33.7518 39.2408C33.2487 38.8736 32.8828 38.8277 32.6999 38.8277C32.4712 38.8277 32.4255 38.8277 32.4255 38.8277C32.4255 38.8277 32.4712 38.8277 32.5627 38.8736C32.6542 38.9195 32.7914 38.9654 32.9743 39.0572C33.2945 39.2408 33.7975 39.6538 34.1177 40.2505C34.4378 40.8471 34.5293 41.7191 34.2091 42.5453C33.9347 43.3714 33.2487 44.1057 32.4255 44.5188C31.6023 44.9318 30.5961 44.9777 29.8186 44.6565C28.9954 44.3352 28.4009 43.6926 28.1722 43.0501C27.8978 42.4076 27.9435 41.8109 28.035 41.3979C28.0807 41.2143 28.1265 41.0307 28.1722 40.9389C28.2179 40.8471 28.2179 40.8012 28.2179 40.8012C28.2179 40.8012 28.1722 40.8471 28.035 41.0307C27.9435 41.2143 27.7149 41.5355 27.6691 42.1322C27.6234 42.4076 27.6234 42.7747 27.7606 43.2337C27.8521 43.6467 28.1265 44.1057 28.5381 44.5647C28.6296 44.6564 28.721 44.7482 28.8582 44.84C28.3551 45.0236 27.8521 45.1613 27.349 45.299C27.2118 44.9318 27.0289 44.7023 26.8459 44.5188C26.6172 44.2893 26.3886 44.1516 26.2056 44.0598C25.794 43.8762 25.5654 43.8762 25.3824 43.8762C25.2452 43.8762 25.1537 43.9221 25.1537 43.9221C25.1537 43.9221 25.1995 43.9221 25.2452 43.968C25.3367 44.0139 25.4282 44.0598 25.5654 44.1057C25.8398 44.2434 26.1599 44.4729 26.48 44.84C26.6172 45.0236 26.7544 45.2531 26.8459 45.5285C26.9374 45.8038 26.8917 46.1251 26.8002 46.4005C26.5715 46.9971 25.9312 47.3643 25.291 47.502C24.0104 47.7774 22.5926 47.1807 22.0438 46.3546C21.7694 45.9415 21.6779 45.5285 21.7237 45.2072C21.7237 45.0695 21.7694 44.9318 21.8151 44.8859C21.8609 44.7941 21.8609 44.7941 21.8609 44.7941C21.8609 44.7941 21.8151 44.7941 21.6779 44.9318C21.5865 45.0695 21.4035 45.299 21.4035 45.7579C21.4035 45.8497 21.4035 45.9874 21.4493 46.1251C21.1291 46.1251 20.809 46.1251 20.5346 46.1251C20.5803 45.9874 20.5803 45.8038 20.5346 45.6662C20.3974 44.9318 19.5742 44.427 18.7052 44.6106C18.6595 44.6106 18.568 44.6565 18.5223 44.6565C18.5223 44.3352 18.6137 44.0139 18.7967 43.7844C19.6199 42.5911 21.9981 41.7191 22.0895 39.6538C22.1353 38.1393 15.6867 38.6441 15.6867 41.0766C15.7325 43.4632 14.6349 43.2796 13.8116 44.6106C13.6744 44.84 13.5372 45.0236 13.4 45.1613C12.8055 44.9777 12.2567 44.84 11.7993 44.6565C11.8451 44.6106 11.8451 44.5647 11.8908 44.5188C12.0737 44.1975 11.9365 43.7385 11.5249 43.5091C11.159 43.2796 10.656 43.3714 10.473 43.6926C10.4273 43.7844 10.4273 43.8303 10.3816 43.9221C5.76239 39.562 2.88113 33.3661 2.88113 26.4818C2.88113 26.4818 2.88113 26.0228 2.88113 25.1967C2.92687 24.3706 2.9726 23.1314 3.24701 21.6168C3.52141 20.1023 4.02449 18.2665 4.89344 16.2929C5.76239 14.3194 7.04295 12.1623 8.82659 10.1888C10.6102 8.16941 12.8512 6.28769 15.5953 4.86493C18.2936 3.39627 21.4493 2.38656 24.8336 2.11119C28.1722 1.83581 31.7395 2.20298 35.0781 3.44216C38.4167 4.63545 41.5266 6.60896 44.0878 9.17912C46.6031 11.7493 48.6155 14.8702 49.8045 18.2206C50.765 21.4333 51.1308 25.0131 50.8564 28.3635Z" fill="white"/>
<path d="M32.9744 33.0449C32.7458 32.6777 32.4714 32.3565 32.1969 32.127C31.9225 31.8975 31.6024 31.7598 31.328 31.668C31.0536 31.5762 30.8249 31.5303 30.5962 31.4844C30.3676 31.4844 30.2304 31.4844 30.1389 31.4844C30.0474 31.4844 29.956 31.4844 29.956 31.4844C29.956 31.4844 30.0017 31.4844 30.1389 31.5303C30.2304 31.5303 30.4133 31.5762 30.5962 31.6221C30.7792 31.668 31.0079 31.7598 31.2365 31.8975C31.4652 32.0352 31.6939 32.2188 31.9225 32.4482C32.1512 32.6777 32.3342 32.9531 32.4714 33.2744C32.6086 33.5956 32.7 33.9628 32.7 34.33C32.7 34.4218 32.7 34.5136 32.7 34.6053C32.7 34.6971 32.7 34.8348 32.6543 34.9266C32.6086 35.1102 32.5628 35.2938 32.5171 35.4774C32.3799 35.8445 32.1512 36.1658 31.8768 36.4412C31.6024 36.7165 31.2823 36.946 30.9164 37.0837C30.5505 37.2214 30.1846 37.2673 29.773 37.2673C29.4072 37.2673 29.0413 37.1755 28.7211 37.0378C28.401 36.9001 28.1266 36.7165 27.8979 36.4871C27.6692 36.2576 27.4863 36.0281 27.3491 35.7986C27.2119 35.5691 27.1204 35.3397 27.0747 35.1561C27.029 34.9725 26.9832 34.8348 26.9832 34.6971C26.9832 34.6053 26.9375 34.5136 26.9375 34.5136C26.9375 34.5136 26.9375 34.5594 26.9375 34.6971C26.9375 34.7889 26.9375 34.9725 26.9375 35.1561C26.9832 35.3397 26.9832 35.615 27.1204 35.8904C27.2119 36.1658 27.3491 36.4412 27.5778 36.7624C28.0351 37.3591 28.7669 37.8639 29.773 37.9557C30.2304 38.0016 30.7334 37.9557 31.1908 37.7721C31.6481 37.5886 32.1055 37.3132 32.4714 36.9919C32.8372 36.6247 33.1116 36.1658 33.2488 35.7068C33.3403 35.4774 33.386 35.2479 33.4318 34.9725C33.4318 34.8348 33.4318 34.743 33.4318 34.6512C33.4318 34.5135 33.4318 34.4218 33.4318 34.2841C33.3403 33.8251 33.1574 33.4121 32.9744 33.0449Z" fill="white"/>
<path d="M19.4828 31.5303C19.3914 30.8419 18.9797 30.3371 18.5681 30.0158C18.3395 29.8781 18.1565 29.7863 17.9736 29.6945C17.7906 29.6486 17.6077 29.6027 17.4705 29.6027C17.3333 29.6027 17.1961 29.6027 17.1504 29.6027C17.0589 29.6027 17.0589 29.6027 17.0589 29.6027C17.0589 29.6027 17.1046 29.6027 17.1504 29.6486C17.2418 29.6486 17.3333 29.6945 17.4248 29.7404C17.6534 29.8322 17.9736 30.0158 18.248 30.3371C18.3852 30.4747 18.5224 30.6583 18.6139 30.8878C18.7053 31.1173 18.7511 31.3468 18.7511 31.5762C18.7511 31.6221 18.7511 31.7139 18.7511 31.7598C18.7511 31.8057 18.7511 31.8975 18.7511 31.9893C18.7511 32.0811 18.7053 32.2188 18.6596 32.3106C18.5681 32.54 18.4309 32.7695 18.2937 32.9072C18.1108 33.0908 17.9279 33.2285 17.6992 33.3203C17.4705 33.4121 17.2418 33.458 16.9674 33.458C16.7388 33.458 16.5101 33.4121 16.2814 33.3203C16.0527 33.2285 15.8698 33.1367 15.7326 32.999C15.5954 32.8613 15.4582 32.7236 15.3667 32.5859C15.2753 32.4483 15.1838 32.3106 15.1381 32.1729C15.0923 32.0352 15.0466 31.9434 15.0466 31.8975C15.0466 31.8057 15.0009 31.8057 15.0009 31.8057C15.0009 31.8057 15.0009 31.8516 15.0009 31.8975C15.0009 31.9893 15.0009 32.0811 15.0009 32.2188C15.0009 32.3565 15.0466 32.54 15.0923 32.7236C15.1381 32.9072 15.2753 33.1367 15.4125 33.3203C15.5497 33.5039 15.7783 33.7333 16.007 33.871C16.2814 34.0087 16.5558 34.1464 16.9217 34.1923C17.2418 34.2382 17.6077 34.1923 17.9279 34.1005C18.248 34.0087 18.5681 33.7792 18.8425 33.5039C19.1169 33.2285 19.2999 32.9072 19.3914 32.5859C19.4371 32.4024 19.4828 32.2188 19.4828 32.0352C19.4828 31.9434 19.4828 31.8975 19.4828 31.8057C19.5286 31.668 19.4828 31.6221 19.4828 31.5303Z" fill="white"/>
<path d="M22.6385 25.9311C22.8671 25.977 23.1415 25.977 23.3702 25.8852C23.5989 25.7934 23.8733 25.6557 24.0562 25.4721C24.2392 25.2885 24.3764 25.0591 24.4678 24.7837C24.5136 24.646 24.5136 24.5542 24.5136 24.3706C24.5136 24.2788 24.5136 24.2788 24.5136 24.2329C24.5136 24.1412 24.5136 24.0953 24.5136 24.0494C24.4221 23.5445 24.1477 23.1773 23.8276 22.9938C23.5074 22.8102 23.233 22.7643 23.0501 22.7643C22.8671 22.7643 22.7757 22.8102 22.7757 22.8102C22.7757 22.8102 22.8214 22.8102 22.8671 22.8561C22.9129 22.8561 23.0043 22.902 23.0501 22.9479C23.1873 23.0397 23.416 23.1773 23.5532 23.3609C23.7361 23.5904 23.8276 23.8658 23.8276 24.1412C23.8276 24.187 23.8276 24.2329 23.8276 24.2329C23.8276 24.2788 23.8276 24.3247 23.8276 24.3706C23.8276 24.4165 23.7818 24.5083 23.7818 24.5542C23.7361 24.6919 23.6446 24.8296 23.5532 24.9214C23.4617 25.0132 23.3245 25.105 23.1873 25.1509C23.0501 25.1968 22.9129 25.2426 22.7757 25.2426C22.6385 25.2426 22.5013 25.2426 22.3641 25.1968C22.2269 25.1509 22.0897 25.105 21.9982 25.0132C21.7695 24.8755 21.6323 24.646 21.5408 24.5083C21.4951 24.4165 21.4494 24.3706 21.4494 24.3247C21.4494 24.2788 21.4036 24.2329 21.4036 24.2329C21.4036 24.2329 21.4036 24.2788 21.4036 24.3247C21.4036 24.3706 21.3579 24.4624 21.3579 24.5542C21.3579 24.7378 21.4036 25.0591 21.6323 25.3344C21.7238 25.4721 21.861 25.6098 22.0439 25.7475C22.1354 25.8393 22.3641 25.9311 22.6385 25.9311Z" fill="white"/>
<path d="M9.83294 17.7157C10.0616 17.8075 10.3818 17.8075 10.6562 17.7616C11.205 17.624 11.708 17.3027 12.0739 16.8437C12.2569 16.6143 12.4398 16.3848 12.5313 16.1094C12.6685 15.8799 12.7599 15.5587 12.7599 15.3292C12.8514 14.7784 12.7142 14.2277 12.4398 13.9064C12.3026 13.7228 12.1197 13.631 11.9367 13.5851C11.7538 13.5392 11.6166 13.5392 11.4794 13.5392C11.2507 13.5392 11.1135 13.631 11.1135 13.631C11.1135 13.631 11.1592 13.631 11.205 13.631C11.2507 13.631 11.3422 13.631 11.4794 13.631C11.5708 13.631 11.7538 13.6769 11.8453 13.7687C11.9825 13.8605 12.1197 13.9523 12.2111 14.09C12.4398 14.4113 12.4855 14.8702 12.3941 15.3292C12.3483 15.5587 12.2569 15.7881 12.1654 16.0176C12.0739 16.2471 11.891 16.4766 11.7538 16.6601C11.3879 16.9814 10.9763 17.3027 10.519 17.3945C10.2903 17.4404 10.0616 17.4863 9.87868 17.4404C9.69574 17.3945 9.5128 17.3027 9.3756 17.165C9.10119 16.8896 9.05546 16.5684 9.00972 16.3389C9.00972 16.2012 9.00972 16.1094 9.00972 16.0635C9.00972 16.0176 9.00972 15.9717 9.00972 15.9717C9.00972 15.9717 9.00972 16.0176 9.00972 16.0635C9.00972 16.1094 8.96399 16.2012 8.96399 16.3389C8.96399 16.5684 8.96399 16.9814 9.2384 17.3486C9.3756 17.4863 9.55854 17.6699 9.83294 17.7157Z" fill="white"/>
<path d="M9.83284 10.2806C9.83284 10.1888 9.87858 10.1888 9.87858 10.1888C9.87858 10.1888 9.83284 10.2347 9.83284 10.2806C9.74138 10.3265 9.69564 10.4183 9.64991 10.556C9.60417 10.6937 9.5127 10.8773 9.5127 11.0608C9.46697 11.2903 9.46697 11.5198 9.60417 11.7952C9.69564 12.0706 9.92431 12.3 10.2445 12.4836C10.3817 12.5754 10.5646 12.6213 10.7475 12.6672C10.839 12.7131 10.8847 12.7131 10.9762 12.7131H11.0219C11.0677 12.7131 11.0677 12.7131 11.1134 12.7131H11.2506C11.9366 12.7131 12.6226 12.4377 13.1714 12.0247C13.4459 11.8411 13.7203 11.6116 13.9489 11.3362C14.0404 11.1985 14.1776 11.0608 14.2691 10.9232C14.3605 10.7855 14.452 10.6019 14.4977 10.4642C14.6349 10.1888 14.7264 9.86756 14.7721 9.54629C14.8179 9.22502 14.7264 8.90375 14.5892 8.67427C14.452 8.3989 14.2691 8.26121 14.0861 8.12353C13.9032 8.03174 13.7203 7.98584 13.5831 7.98584C13.2629 7.98584 13.1257 8.03174 13.1257 8.03174C13.1257 8.03174 13.1714 8.03174 13.2172 8.07763C13.3087 8.07763 13.4001 8.12353 13.5373 8.16942C13.6745 8.21532 13.8117 8.30711 13.9032 8.3989C14.0404 8.53659 14.1319 8.67427 14.1776 8.85786C14.2233 9.04144 14.2233 9.27092 14.1776 9.5004C14.1319 9.72987 14.0404 9.95935 13.9032 10.1888C13.8117 10.3265 13.766 10.4183 13.6745 10.5101C13.5831 10.6019 13.4916 10.7396 13.4001 10.8314C13.2172 11.015 12.9885 11.2444 12.7598 11.3821C12.3025 11.7034 11.7537 11.9329 11.2506 12.0247H11.1591H11.1134H11.0677C10.9762 12.0247 10.9305 12.0247 10.8847 12.0247C10.7933 12.0247 10.6561 12.0247 10.5646 11.9788C10.3817 11.9329 10.1987 11.7952 10.1073 11.6575C9.87858 11.3362 9.87858 10.9232 9.92431 10.6937C9.78711 10.4642 9.83284 10.3724 9.83284 10.2806Z" fill="white"/>
<path d="M6.90583 27.8127C7.08877 27.4915 7.18024 27.1243 7.27171 26.7112C7.31744 26.3441 7.31744 25.931 7.27171 25.5638C7.22597 25.3803 7.18024 25.1967 7.1345 25.0131C7.08877 24.9213 7.04303 24.8295 7.04303 24.7377C6.9973 24.6459 6.95157 24.6 6.90583 24.5082C6.72289 24.1411 6.44849 23.9116 6.12835 23.728C5.80821 23.5444 5.48807 23.4526 5.21366 23.4526C4.89352 23.4526 4.66485 23.5444 4.43618 23.6362C4.20751 23.728 4.0703 23.8657 3.97883 23.9575C3.75016 24.2329 3.65869 24.3706 3.65869 24.3706C3.65869 24.3706 3.70443 24.3247 3.75016 24.3247C3.7959 24.2788 3.9331 24.2329 4.0703 24.1411C4.20751 24.0952 4.34471 24.0034 4.57338 23.9575C4.75632 23.9116 4.98499 23.9116 5.21366 23.9575C5.44233 24.0034 5.62527 24.0952 5.85394 24.2329C6.03688 24.3706 6.21982 24.6 6.31129 24.8295C6.35702 24.9213 6.40275 24.9672 6.40275 25.059C6.40275 25.1049 6.44849 25.1967 6.44849 25.2426C6.49422 25.3803 6.49422 25.5179 6.53996 25.6556C6.58569 25.931 6.58569 26.2523 6.49422 26.5735C6.44849 26.8948 6.35702 27.1702 6.21982 27.4456C6.08261 27.7209 5.94541 27.9963 5.76247 28.1799C5.5338 28.4094 5.3966 28.5471 5.16793 28.6847C4.93926 28.8224 4.71058 28.8683 4.48191 28.8683C4.25324 28.8683 4.0703 28.8224 3.88737 28.7765C3.70443 28.6847 3.56723 28.593 3.43002 28.5012C3.29282 28.4094 3.20135 28.3635 3.15562 28.2717C3.10988 28.2258 3.06415 28.1799 3.06415 28.1799C3.06415 28.1799 3.06415 28.2258 3.10988 28.3176C3.15562 28.4094 3.20135 28.5012 3.29282 28.6388C3.38429 28.7765 3.52149 28.9142 3.70443 29.0519C3.88737 29.1896 4.11604 29.3273 4.43618 29.3732C4.71058 29.4191 5.07646 29.4191 5.3966 29.2814C5.71674 29.1896 6.03688 28.9601 6.26555 28.7306C6.53996 28.4553 6.76863 28.134 6.90583 27.8127Z" fill="white"/>
<path d="M30.4591 8.2612C30.9164 8.2612 31.4195 8.2612 31.8768 8.16941C32.3342 8.07762 32.7915 7.93993 33.2489 7.71045C33.6147 7.52687 34.0264 7.15971 34.255 6.74665C34.3465 6.51717 34.438 6.28769 34.438 6.05821C34.438 5.82873 34.3922 5.64515 34.3008 5.46157C34.1636 5.0944 33.9349 4.81903 33.7062 4.63544C33.4775 4.45186 33.2946 4.31418 33.1117 4.22238C32.9287 4.13059 32.7915 4.0847 32.7001 4.0388C32.6086 3.99291 32.5629 3.99291 32.5629 3.99291C32.5629 3.99291 32.6086 4.0388 32.7001 4.0847C32.7915 4.13059 32.9287 4.26828 33.0659 4.36007C33.2031 4.49776 33.3861 4.68134 33.5233 4.86492C33.6605 5.0944 33.8434 5.32388 33.8892 5.59925C33.9349 5.87463 33.9349 6.1959 33.752 6.42538C33.569 6.70075 33.2946 6.88433 32.9287 7.06791C32.6086 7.2056 32.197 7.29739 31.7854 7.38918C31.3738 7.43508 30.9622 7.48098 30.5048 7.43508C30.0932 7.43508 29.6359 7.34329 29.2243 7.2515C28.8126 7.15971 28.401 7.02202 28.0352 6.88433C27.9437 6.83844 27.8522 6.79254 27.7608 6.74665C27.6693 6.70075 27.5778 6.65485 27.4863 6.60896C27.3034 6.51717 27.1662 6.42538 27.029 6.33358C26.7546 6.10411 26.5259 5.87463 26.343 5.59925C26.2058 5.32388 26.1143 5.04851 26.1601 4.81903C26.2058 4.58955 26.2973 4.36007 26.3887 4.22238C26.4802 4.0847 26.6174 3.94701 26.6631 3.85522C26.7546 3.76343 26.8003 3.76343 26.8003 3.76343C26.8003 3.76343 26.7546 3.80932 26.6631 3.85522C26.5717 3.90111 26.4345 3.99291 26.2973 4.13059C26.16 4.26828 25.9771 4.49776 25.8856 4.77313C25.7942 5.04851 25.7942 5.46157 25.9771 5.82873C26.1143 6.1959 26.3887 6.51717 26.6631 6.79254C26.8003 6.93023 26.9833 7.06791 27.1662 7.2056C27.2577 7.2515 27.3491 7.29739 27.4406 7.38918C27.5321 7.43508 27.6235 7.48098 27.7608 7.57277C28.1724 7.75635 28.584 7.93993 29.0413 8.07762C29.5444 8.16941 30.0017 8.2612 30.4591 8.2612Z" fill="white"/>
<path d="M38.1424 20.2399C38.1424 20.1022 38.1882 19.9646 38.1882 19.8269C38.1882 19.6892 38.1882 19.5974 38.1882 19.4597C38.1882 19.322 38.1424 19.2302 38.1424 19.0925C37.9595 18.1287 37.4107 17.3944 36.8161 16.9813C36.5417 16.7519 36.2216 16.6142 35.9472 16.5224C35.6728 16.4306 35.4441 16.3847 35.2154 16.3388C34.9868 16.3388 34.8496 16.3388 34.7581 16.3388C34.6666 16.3388 34.5752 16.3388 34.5752 16.3388C34.5752 16.3388 34.6209 16.3388 34.7581 16.3847C34.8496 16.3847 35.0325 16.4765 35.2154 16.5224C35.3984 16.6142 35.627 16.706 35.8557 16.8437C36.0844 16.9813 36.3131 17.1649 36.5417 17.3944C36.9991 17.8534 37.3649 18.4959 37.4564 19.2761C37.4564 19.3679 37.4564 19.4597 37.4564 19.5515C37.4564 19.6433 37.4564 19.7351 37.4564 19.8728C37.4107 20.0564 37.4107 20.2399 37.3649 20.4235C37.2735 20.7907 37.0448 21.112 36.7704 21.3873C36.496 21.6627 36.1759 21.8463 35.81 21.984C35.627 22.0299 35.4441 22.0758 35.2612 22.0758H34.9868C34.8953 22.0758 34.7581 22.0758 34.6666 22.0758C34.3007 22.0299 33.9349 21.9381 33.6147 21.7545C33.2946 21.6168 33.0202 21.3873 32.7915 21.1578C32.5628 20.9284 32.3799 20.6989 32.2427 20.4694C32.1055 20.2399 32.014 20.0105 31.9226 19.8728C31.8768 19.6892 31.7854 19.5515 31.7854 19.4138C31.7396 19.322 31.7396 19.2761 31.7396 19.2761C31.7396 19.2761 31.7396 19.322 31.7396 19.4597C31.7396 19.5515 31.7396 19.7351 31.7396 19.9187C31.7854 20.1022 31.8311 20.3776 31.9226 20.653C32.014 20.9284 32.197 21.2037 32.4256 21.4791C32.6543 21.7545 32.9287 22.0299 33.2946 22.2593C33.6605 22.4888 34.0721 22.6724 34.5752 22.7642C34.6666 22.7642 34.8038 22.8101 34.8953 22.8101C35.0325 22.8101 35.124 22.8101 35.2612 22.8101C35.3984 22.8101 35.4898 22.8101 35.627 22.7642C35.7642 22.7183 35.8557 22.7183 35.9929 22.6724C36.496 22.5347 36.9533 22.2593 37.3192 21.8922C37.6851 21.525 37.9595 21.0661 38.0967 20.5612C38.0967 20.5153 38.0967 20.3776 38.1424 20.2399Z" fill="white"/>
<path d="M12.6683 24.6919C12.9427 24.646 13.2628 24.6001 13.4915 24.4165C13.7659 24.2788 13.9946 24.0953 14.1775 23.8658C14.3605 23.6363 14.5434 23.3609 14.6349 23.0855C14.7263 22.8102 14.7721 22.4889 14.7263 22.2135C14.6806 21.9382 14.5891 21.6628 14.4519 21.4333C14.3147 21.2038 14.1318 21.0661 13.9031 20.9285C13.4915 20.699 13.1256 20.699 12.897 20.699C12.7598 20.699 12.6683 20.7449 12.6226 20.7449C12.5768 20.7449 12.5311 20.7908 12.5311 20.7908C12.5311 20.7908 12.5768 20.7908 12.6226 20.7908C12.6683 20.7908 12.7598 20.7908 12.897 20.8367C13.1256 20.8826 13.4458 20.9743 13.7202 21.2038C13.9946 21.4333 14.2233 21.8005 14.2233 22.2594C14.2233 22.4889 14.1775 22.7184 14.1318 22.902C14.0403 23.1314 13.9489 23.315 13.7659 23.4986C13.4458 23.8658 13.0342 24.0953 12.5768 24.187C12.4396 24.2329 12.3482 24.2329 12.2567 24.2329C12.1652 24.2329 12.028 24.2329 11.9365 24.187C11.7536 24.1411 11.5707 24.0494 11.3877 23.9576C11.0676 23.774 10.8847 23.4527 10.7932 23.2691C10.7017 23.0397 10.7017 22.902 10.7017 22.902C10.7017 22.902 10.7017 22.9479 10.7017 22.9938C10.7017 23.0397 10.7017 23.1773 10.7017 23.2691C10.7475 23.4986 10.8389 23.8658 11.2048 24.187C11.3877 24.3247 11.5707 24.4624 11.8451 24.5542C11.9823 24.6001 12.1195 24.646 12.2567 24.646C12.3939 24.6919 12.5768 24.6919 12.6683 24.6919Z" fill="white"/>
<path d="M35.0782 7.71051C35.1239 7.66461 35.1239 7.66461 35.1239 7.66461C35.1239 7.66461 35.1239 7.66461 35.0782 7.71051C34.9867 7.71051 34.8953 7.71051 34.8038 7.8023C34.7123 7.89409 34.6209 7.98588 34.5294 8.16946C34.4837 8.35305 34.4379 8.53663 34.4837 8.76611C34.5294 8.99559 34.6209 9.17917 34.7581 9.40865C34.8038 9.50044 34.8953 9.59223 34.9867 9.68402C35.0782 9.77581 35.1239 9.82171 35.2611 9.95939C35.627 10.2807 36.0844 10.556 36.6332 10.6937C36.9076 10.7396 37.182 10.7855 37.4564 10.7855C37.5936 10.7855 37.7308 10.7855 37.868 10.7396C37.9595 10.7396 38.0052 10.6937 38.0967 10.6937C38.1881 10.6478 38.2339 10.6478 38.2796 10.6019C38.554 10.4642 38.7827 10.2348 38.8742 9.95939C38.9656 9.68402 38.9199 9.40865 38.8284 9.22506C38.6455 8.812 38.4168 8.62842 38.2339 8.49073C38.1424 8.44484 38.0509 8.39894 38.0052 8.35305C37.9595 8.30715 37.9137 8.30715 37.9137 8.30715C37.9137 8.30715 37.9137 8.35305 37.9595 8.39894C38.0052 8.44484 38.0509 8.53663 38.0967 8.62842C38.1881 8.812 38.3253 9.08738 38.3711 9.36275C38.3711 9.50044 38.3711 9.63812 38.2796 9.77581C38.2339 9.8676 38.0967 9.95939 37.9595 10.0053C37.9137 10.0512 37.868 10.0512 37.8223 10.0512C37.7765 10.0512 37.7308 10.0512 37.6851 10.0512C37.5936 10.0512 37.5021 10.0512 37.4107 10.0512C37.2277 10.0512 36.9991 10.0053 36.8161 9.95939C36.6332 9.9135 36.4045 9.82171 36.2216 9.72992C36.0386 9.63812 35.8557 9.54633 35.6728 9.40865C35.627 9.36275 35.4898 9.27096 35.4441 9.22506C35.3984 9.17917 35.3069 9.08738 35.2611 9.04148C35.1239 8.90379 35.0325 8.76611 34.9867 8.62842C34.8495 8.35305 34.8495 8.12357 34.941 7.93999C34.9867 7.84819 35.0782 7.7564 35.0782 7.71051Z" fill="white"/>
<path d="M13.4458 38.3229C13.2171 38.0016 12.9427 37.818 12.7598 37.6803C12.6683 37.6345 12.5768 37.5886 12.5311 37.5886C12.4854 37.5886 12.4396 37.5427 12.4396 37.5427C12.4396 37.5427 12.5311 37.6345 12.6683 37.7721C12.8055 37.9098 12.9884 38.1852 13.1256 38.4606C13.2628 38.7818 13.4 39.149 13.4 39.5621C13.4 39.6539 13.4 39.7916 13.3543 39.8374C13.3543 39.8833 13.3086 39.9751 13.3086 40.021C13.3086 40.0669 13.3086 40.1128 13.2628 40.1128C13.1714 40.2964 13.0799 40.3882 12.9427 40.4341C12.8055 40.48 12.6226 40.48 12.4396 40.4341C12.3482 40.3882 12.2567 40.3423 12.1652 40.3423L12.028 40.2505L11.8908 40.1587C11.5707 39.9292 11.2963 39.608 11.1591 39.2867C10.9761 39.0113 10.8847 38.6901 10.8389 38.5065C10.7932 38.3229 10.7932 38.1852 10.7932 38.1852C10.7932 38.1852 10.7932 38.2311 10.7475 38.277C10.7475 38.3229 10.7017 38.4147 10.7017 38.5065C10.7017 38.736 10.7017 39.0572 10.8389 39.4244C10.9761 39.7916 11.2048 40.2046 11.5707 40.5259L11.7079 40.6636L11.8451 40.7554C11.9365 40.8472 12.0738 40.8931 12.211 40.9389C12.4854 41.0307 12.8055 41.0766 13.1256 40.9389C13.4458 40.8472 13.6745 40.5718 13.8117 40.2964C13.8574 40.2505 13.8574 40.1587 13.9031 40.0669C13.9031 39.9751 13.9031 39.9292 13.9489 39.8833C13.9489 39.6998 13.9489 39.608 13.9489 39.4703C13.9031 39.0572 13.6745 38.6442 13.4458 38.3229Z" fill="white"/>
<path d="M10.8847 36.7624C10.9305 36.5329 10.8847 36.3494 10.8847 36.1658C10.839 35.4314 10.5189 34.7889 10.1987 34.3299C10.0158 34.1005 9.87859 33.9169 9.69566 33.7333C9.51272 33.5956 9.37552 33.4579 9.23831 33.3661C9.10111 33.2743 9.00964 33.2284 8.91817 33.1826C8.8267 33.1367 8.78097 33.1367 8.78097 33.1367C8.78097 33.1367 8.8267 33.1826 8.87244 33.2284C8.96391 33.2743 9.00964 33.3661 9.14685 33.4579C9.37552 33.6874 9.64992 34.0546 9.87859 34.5135C10.1073 34.9725 10.3359 35.5691 10.3359 36.2117C10.3359 36.3494 10.3359 36.5329 10.2902 36.6706C10.2902 36.7624 10.2445 36.8542 10.2445 36.9001C10.1987 36.946 10.1987 37.0378 10.153 37.0837C10.0158 37.3591 9.83286 37.5426 9.55845 37.6344C9.28405 37.7262 8.96391 37.7262 8.6895 37.6344C8.5523 37.5885 8.4151 37.5426 8.27789 37.4509L8.04922 37.3132L7.86628 37.1755C7.36321 36.8083 6.99733 36.3035 6.72293 35.8445C6.58572 35.615 6.49425 35.3855 6.44852 35.202C6.40279 35.0184 6.40279 34.8348 6.35705 34.6971C6.35705 34.5594 6.31132 34.4217 6.31132 34.3299C6.31132 34.2382 6.31132 34.1923 6.31132 34.1923C6.31132 34.1923 6.31132 34.2382 6.26558 34.3299C6.26558 34.4217 6.21985 34.5594 6.21985 34.6971C6.21985 34.8807 6.21985 35.0643 6.26558 35.2938C6.31132 35.5232 6.35705 35.7986 6.44852 36.0281C6.63146 36.5788 6.99733 37.1755 7.54614 37.6344L7.77482 37.818L8.00349 37.9557C8.18642 38.0475 8.32363 38.1393 8.5523 38.2311C8.91817 38.3688 9.37552 38.4147 9.83286 38.277C10.2445 38.1393 10.6103 37.7721 10.7475 37.3591C10.7933 37.2673 10.839 37.1755 10.839 37.0378C10.839 36.946 10.8847 36.8542 10.8847 36.7624Z" fill="white"/>
<path d="M25.1539 16.5225C25.5198 15.5128 26.5259 14.962 28.8584 14.6407C31.1908 14.3195 33.7977 15.7881 36.7247 15.2833C39.8804 14.7325 36.2674 13.9064 32.5171 12.759C28.8127 11.6116 28.584 12.8967 25.7027 12.5295C22.8672 12.1624 21.4037 12.8049 20.9921 14.5031C20.8091 15.3292 17.562 14.0441 17.562 15.6045C17.562 16.4307 17.9736 17.3486 20.0317 18.2665C21.9982 19.1844 24.788 17.5322 25.1539 16.5225Z" fill="white"/>
<path d="M10.4732 31.7139C11.0677 31.6221 11.3879 30.796 11.2049 29.8781C11.022 28.9601 10.4275 28.3176 9.83291 28.4553C9.23837 28.5471 8.91823 29.3732 9.10116 30.2911C9.2841 31.209 9.87865 31.8057 10.4732 31.7139Z" fill="white"/>
<path d="M11.7079 33.5497C11.9823 33.5038 12.1653 33.0908 12.0738 32.6318C11.9823 32.1729 11.6622 31.8516 11.3878 31.8975C11.1134 31.9434 10.9304 32.3564 11.0219 32.8154C11.1134 33.2744 11.4335 33.5956 11.7079 33.5497Z" fill="white"/>
<path d="M13.8574 37.2673C13.6287 37.405 13.6744 37.818 13.9031 38.1393C14.1318 38.4606 14.4977 38.5983 14.6806 38.4606C14.9093 38.3229 14.8635 37.9098 14.6349 37.5885C14.4062 37.2673 14.0403 37.1296 13.8574 37.2673Z" fill="white"/>
<path d="M25.4283 37.0378C24.5594 37.1755 23.9191 37.9098 24.0563 38.69C24.1935 39.4243 25.0167 39.9292 25.8856 39.7456C26.7546 39.6079 27.3949 38.8736 27.2577 38.0934C27.1205 37.359 26.2973 36.9001 25.4283 37.0378Z" fill="white"/>
<path d="M22.6843 36.8541C22.227 36.9459 21.9526 37.3131 21.9983 37.6803C22.044 38.0474 22.4556 38.2769 22.913 38.231C23.3703 38.1392 23.6447 37.7721 23.599 37.4049C23.5075 37.0377 23.0959 36.8083 22.6843 36.8541Z" fill="white"/>
<path d="M24.6965 35.6609C24.3306 35.7068 24.102 36.0281 24.1477 36.3493C24.1934 36.6706 24.5593 36.8542 24.8795 36.7624C25.2453 36.7165 25.474 36.3952 25.4283 36.074C25.3825 35.7527 25.0624 35.5691 24.6965 35.6609Z" fill="white"/>
<path d="M29.1327 15.9717C28.2637 15.2832 27.0289 15.3291 26.3886 16.1553C25.7026 16.9814 25.8398 18.2206 26.7088 18.909C27.5777 19.5974 28.8125 19.5515 29.4528 18.7254C30.1388 17.8993 30.0016 16.706 29.1327 15.9717Z" fill="white"/>
<path d="M30.6879 15.9258C30.3677 16.2929 30.4135 16.8896 30.8251 17.2109C31.2367 17.5321 31.8312 17.4862 32.1514 17.1191C32.4715 16.7519 32.4258 16.1553 32.0142 15.834C31.6026 15.5127 31.008 15.5586 30.6879 15.9258Z" fill="white"/>
<path d="M38.1423 26.0228C37.7307 26.39 37.6392 26.9866 37.9136 27.3538C38.2338 27.7209 38.7826 27.7209 39.2399 27.3538C39.6515 26.9866 39.743 26.39 39.4686 26.0228C39.1485 25.6556 38.5539 25.6556 38.1423 26.0228Z" fill="white"/>
<path d="M29.27 27.9046C29.7273 28.0423 30.139 27.8128 30.2762 27.4456C30.3676 27.0784 30.139 26.6654 29.6816 26.5736C29.2243 26.4359 28.8127 26.6654 28.6755 27.0325C28.5383 27.3997 28.8127 27.7669 29.27 27.9046Z" fill="white"/>
<path d="M5.3508 20.9285C5.85387 21.112 6.49415 20.6072 6.72283 19.827C6.99723 19.0467 6.76856 18.2665 6.26548 18.0829C5.7624 17.8993 5.12212 18.4042 4.89345 19.1844C4.61905 19.9646 4.84772 20.7449 5.3508 20.9285Z" fill="white"/>
<path d="M6.95159 15.2833C6.81439 15.6504 6.95159 15.9717 7.18026 16.0635C7.40893 16.1553 7.68334 15.9258 7.82054 15.5586C7.95775 15.1915 7.82054 14.8702 7.59187 14.7784C7.3632 14.6866 7.08879 14.9161 6.95159 15.2833Z" fill="white"/>
<path d="M6.67725 16.706C6.81445 16.247 6.72298 15.7881 6.40284 15.6963C6.12844 15.6045 5.76256 15.8799 5.57962 16.3388C5.44242 16.7978 5.53389 17.2568 5.85403 17.3485C6.17417 17.4403 6.54005 17.165 6.67725 16.706Z" fill="white"/>
<path d="M20.9463 6.79255C22.2269 6.47128 23.0959 5.64516 22.9129 5.00262C22.73 4.36008 21.5866 4.0847 20.3061 4.40597C19.0255 4.72724 18.1565 5.55336 18.3395 6.1959C18.5224 6.83844 19.7115 7.11382 20.9463 6.79255Z" fill="white"/>
<path d="M17.928 7.48101C17.3335 7.75638 17.0133 8.26124 17.1505 8.58251C17.2877 8.90378 17.8823 8.90378 18.4768 8.6284C19.0714 8.35303 19.3915 7.84818 19.2543 7.52691C19.0714 7.20564 18.4768 7.15974 17.928 7.48101Z" fill="white"/>
<path d="M41.5268 13.0803C41.0237 13.5392 41.2981 14.6866 42.2128 15.6504C43.0817 16.6142 44.2251 17.0273 44.7282 16.5683C45.2312 16.1094 44.9568 14.962 44.0422 13.9982C43.1732 13.0344 42.0298 12.6213 41.5268 13.0803Z" fill="white"/>
<path d="M26.1142 11.8411C27.4405 11.7952 28.4924 11.1067 28.4466 10.3265C28.4009 9.54627 27.349 8.94963 26.0227 8.99552C24.6964 9.04142 23.6445 9.72985 23.6903 10.5101C23.736 11.2903 24.7879 11.8869 26.1142 11.8411Z" fill="white"/>
<path d="M22.6386 12.2542C23.1874 12.2542 23.6447 11.9329 23.6447 11.6116C23.6447 11.2903 23.1874 11.015 22.5928 11.0609C22.044 11.0609 21.5867 11.3821 21.5867 11.7034C21.6324 12.0247 22.0897 12.3001 22.6386 12.2542Z" fill="white"/>
<path d="M42.3957 12.1165C42.6244 11.887 42.4415 11.2903 41.9841 10.8314C41.5268 10.3724 40.9322 10.1888 40.7035 10.4642C40.4749 10.6937 40.6578 11.2903 41.1152 11.7493C41.5725 12.2083 42.167 12.3918 42.3957 12.1165Z" fill="white"/>
<path d="M1.55497 17.5321C1.7379 17.0732 1.87511 16.6142 2.10378 16.1553C2.46965 15.1915 2.97273 14.2276 3.52154 13.2638C4.07035 12.3 4.71064 11.3362 5.39665 10.4183C6.08267 9.5004 6.86015 8.58249 7.7291 7.75636C8.55232 6.93024 9.46701 6.15002 10.3817 5.41569C11.2964 4.72725 12.2568 4.08471 13.2172 3.53396C14.1776 2.98322 15.1381 2.52426 16.0985 2.1112C16.5558 1.88172 17.0589 1.74403 17.4705 1.56045C17.9279 1.42277 18.3852 1.23918 18.7968 1.14739C19.6658 0.917913 20.4432 0.688435 21.175 0.550748C21.5409 0.504852 21.861 0.413061 22.1811 0.367165C22.5013 0.321269 22.7757 0.275374 23.0501 0.229478C23.5532 0.137687 24.0105 0.137687 24.2849 0.0917913C24.5593 0.0458957 24.7423 0.0458956 24.7423 0.0458956C24.7423 0.0458956 24.6051 0.0458956 24.2849 0.0458956C24.0105 0.0458956 23.5989 0 23.0501 0C22.7757 0 22.5013 0 22.1811 0C21.861 0.0458956 21.4951 0.0458957 21.1293 0.0917913C20.3975 0.183583 19.5286 0.275374 18.6596 0.458956C18.2023 0.550748 17.7449 0.688435 17.2418 0.780226C16.7845 0.917913 16.2814 1.0556 15.7783 1.23918C14.7722 1.56045 13.766 2.01941 12.7141 2.57016C11.708 3.1209 10.6561 3.71755 9.64994 4.45188C8.68952 5.14031 7.7291 5.96643 6.86015 6.83845C5.9912 7.71047 5.16798 8.67428 4.43623 9.68398C3.70448 10.6937 3.10993 11.7034 2.56112 12.759C2.05804 13.8146 1.6007 14.8243 1.23483 15.834C1.05189 16.3388 0.914687 16.8437 0.777484 17.3027C0.640281 17.8075 0.548812 18.2665 0.457343 18.7254C0.274406 19.6433 0.137203 20.4695 0.0914687 21.2038C0.0457343 21.5251 0.0457343 21.8922 0 22.2135C0 22.5348 0 22.856 0 23.0855C0 23.6363 0.0457343 24.0493 0.0457343 24.3247C0.0457343 24.6001 0.0457343 24.7836 0.0457343 24.7836C0.0457343 24.7836 0.0457343 24.646 0.0914687 24.3706C0.137203 24.0952 0.137203 23.6822 0.228672 23.1314C0.274406 22.856 0.32014 22.5807 0.365875 22.2594C0.411609 21.9381 0.503078 21.6169 0.548812 21.2497C0.686015 20.5154 0.868952 19.7351 1.14336 18.8631C1.28056 18.4042 1.41776 17.9911 1.55497 17.5321Z" fill="white"/>

            </g>
        </symbol>

           <symbol id="micro" viewBox="0 0 147 69">
            <g>
                <g opacity="0.5">
                    <path opacity="0.3" d="M107.873 66.3547H101.803C101.578 66.3547 101.396 66.5371 101.396 66.762V67.7007C101.396 67.9257 101.578 68.1081 101.803 68.1081H107.873C108.098 68.1081 108.281 67.9257 108.281 67.7007V66.762C108.281 66.5371 108.098 66.3547 107.873 66.3547Z" fill="white"/>
                    <path opacity="0.3" d="M107.873 63.5696H101.803C101.578 63.5696 101.396 63.7519 101.396 63.9769V64.9156C101.396 65.1406 101.578 65.323 101.803 65.323H107.873C108.098 65.323 108.281 65.1406 108.281 64.9156V63.9769C108.281 63.7519 108.098 63.5696 107.873 63.5696Z" fill="white"/>
                    <path opacity="0.3" d="M107.873 60.7802H101.803C101.578 60.7802 101.396 60.9625 101.396 61.1875V62.1262C101.396 62.3511 101.578 62.5335 101.803 62.5335H107.873C108.098 62.5335 108.281 62.3511 108.281 62.1262V61.1875C108.281 60.9625 108.098 60.7802 107.873 60.7802Z" fill="white"/>
                    <path opacity="0.3" d="M107.873 57.9951H101.803C101.578 57.9951 101.396 58.1775 101.396 58.4024V59.3411C101.396 59.5661 101.578 59.7484 101.803 59.7484H107.873C108.098 59.7484 108.281 59.5661 108.281 59.3411V58.4024C108.281 58.1775 108.098 57.9951 107.873 57.9951Z" fill="white"/>
                    <path opacity="0.3" d="M107.873 55.2057H101.803C101.578 55.2057 101.396 55.3881 101.396 55.613V56.5517C101.396 56.7767 101.578 56.9591 101.803 56.9591H107.873C108.098 56.9591 108.281 56.7767 108.281 56.5517V55.613C108.281 55.3881 108.098 55.2057 107.873 55.2057Z" fill="white"/>
                    <path opacity="0.3" d="M107.873 52.4206H101.803C101.578 52.4206 101.396 52.603 101.396 52.8279V53.7666C101.396 53.9916 101.578 54.174 101.803 54.174H107.873C108.098 54.174 108.281 53.9916 108.281 53.7666V52.8279C108.281 52.603 108.098 52.4206 107.873 52.4206Z" fill="white"/>
                    <path opacity="0.3" d="M107.873 49.6356H101.803C101.578 49.6356 101.396 49.8179 101.396 50.0429V50.9816C101.396 51.2066 101.578 51.3889 101.803 51.3889H107.873C108.098 51.3889 108.281 51.2066 108.281 50.9816V50.0429C108.281 49.8179 108.098 49.6356 107.873 49.6356Z" fill="white"/>
                    <path opacity="0.3" d="M107.873 46.8461H101.803C101.578 46.8461 101.396 47.0285 101.396 47.2534V48.1921C101.396 48.4171 101.578 48.5995 101.803 48.5995H107.873C108.098 48.5995 108.281 48.4171 108.281 48.1921V47.2534C108.281 47.0285 108.098 46.8461 107.873 46.8461Z" fill="white"/>
                    <path opacity="0.3" d="M107.873 44.061H101.803C101.578 44.061 101.396 44.2434 101.396 44.4684V45.4071C101.396 45.632 101.578 45.8144 101.803 45.8144H107.873C108.098 45.8144 108.281 45.632 108.281 45.4071V44.4684C108.281 44.2434 108.098 44.061 107.873 44.061Z" fill="white"/>
                    <path opacity="0.3" d="M107.873 41.2715H101.803C101.578 41.2715 101.396 41.4539 101.396 41.6789V42.6176C101.396 42.8426 101.578 43.0249 101.803 43.0249H107.873C108.098 43.0249 108.281 42.8426 108.281 42.6176V41.6789C108.281 41.4539 108.098 41.2715 107.873 41.2715Z" fill="white"/>
                    <path opacity="0.3" d="M107.873 38.4866H101.803C101.578 38.4866 101.396 38.6689 101.396 38.8939V39.8326C101.396 40.0576 101.578 40.24 101.803 40.24H107.873C108.098 40.24 108.281 40.0576 108.281 39.8326V38.8939C108.281 38.6689 108.098 38.4866 107.873 38.4866Z" fill="white"/>
                    <path opacity="0.3" d="M107.873 35.7015H101.803C101.578 35.7015 101.396 35.8838 101.396 36.1088V37.0475C101.396 37.2725 101.578 37.4549 101.803 37.4549H107.873C108.098 37.4549 108.281 37.2725 108.281 37.0475V36.1088C108.281 35.8838 108.098 35.7015 107.873 35.7015Z" fill="white"/>
                    <path opacity="0.3" d="M107.873 32.912H101.803C101.578 32.912 101.396 33.0944 101.396 33.3193V34.258C101.396 34.483 101.578 34.6654 101.803 34.6654H107.873C108.098 34.6654 108.281 34.483 108.281 34.258V33.3193C108.281 33.0944 108.098 32.912 107.873 32.912Z" fill="white"/>
                    <path opacity="0.3" d="M107.873 30.127H101.803C101.578 30.127 101.396 30.3093 101.396 30.5343V31.473C101.396 31.6979 101.578 31.8803 101.803 31.8803H107.873C108.098 31.8803 108.281 31.6979 108.281 31.473V30.5343C108.281 30.3093 108.098 30.127 107.873 30.127Z" fill="white"/>
                    <path opacity="0.3" d="M107.873 27.342H101.803C101.578 27.342 101.396 27.5244 101.396 27.7493V28.688C101.396 28.913 101.578 29.0954 101.803 29.0954H107.873C108.098 29.0954 108.281 28.913 108.281 28.688V27.7493C108.281 27.5244 108.098 27.342 107.873 27.342Z" fill="white"/>
                    <path opacity="0.3" d="M107.873 24.5524H101.803C101.578 24.5524 101.396 24.7348 101.396 24.9598V25.8984C101.396 26.1234 101.578 26.3058 101.803 26.3058H107.873C108.098 26.3058 108.281 26.1234 108.281 25.8984V24.9598C108.281 24.7348 108.098 24.5524 107.873 24.5524Z" fill="white"/>
                    <path opacity="0.3" d="M107.873 21.7675H101.803C101.578 21.7675 101.396 21.9498 101.396 22.1748V23.1135C101.396 23.3385 101.578 23.5208 101.803 23.5208H107.873C108.098 23.5208 108.281 23.3385 108.281 23.1135V22.1748C108.281 21.9498 108.098 21.7675 107.873 21.7675Z" fill="white"/>
                    <path opacity="0.3" d="M107.873 18.9779H101.803C101.578 18.9779 101.396 19.1603 101.396 19.3853V20.3239C101.396 20.5489 101.578 20.7313 101.803 20.7313H107.873C108.098 20.7313 108.281 20.5489 108.281 20.3239V19.3853C108.281 19.1603 108.098 18.9779 107.873 18.9779Z" fill="white"/>
                    <path opacity="0.3" d="M107.873 16.1929H101.803C101.578 16.1929 101.396 16.3752 101.396 16.6002V17.5389C101.396 17.7639 101.578 17.9462 101.803 17.9462H107.873C108.098 17.9462 108.281 17.7639 108.281 17.5389V16.6002C108.281 16.3752 108.098 16.1929 107.873 16.1929Z" fill="white"/>
                    </g>
                    <g opacity="0.5">
                    <path opacity="0.3" d="M117.539 66.3546H111.468C111.243 66.3546 111.061 66.537 111.061 66.762V67.7007C111.061 67.9256 111.243 68.108 111.468 68.108H117.539C117.764 68.108 117.946 67.9256 117.946 67.7007V66.762C117.946 66.537 117.764 66.3546 117.539 66.3546Z" fill="white"/>
                    <path opacity="0.3" d="M117.539 63.5696H111.468C111.243 63.5696 111.061 63.752 111.061 63.977V64.9157C111.061 65.1406 111.243 65.323 111.468 65.323H117.539C117.764 65.323 117.946 65.1406 117.946 64.9157V63.977C117.946 63.752 117.764 63.5696 117.539 63.5696Z" fill="white"/>
                    <path opacity="0.3" d="M117.539 60.7801H111.468C111.243 60.7801 111.061 60.9625 111.061 61.1874V62.1261C111.061 62.3511 111.243 62.5335 111.468 62.5335H117.539C117.764 62.5335 117.946 62.3511 117.946 62.1261V61.1874C117.946 60.9625 117.764 60.7801 117.539 60.7801Z" fill="white"/>
                    <path opacity="0.3" d="M117.539 57.9951H111.468C111.243 57.9951 111.061 58.1775 111.061 58.4025V59.3412C111.061 59.5661 111.243 59.7485 111.468 59.7485H117.539C117.764 59.7485 117.946 59.5661 117.946 59.3412V58.4025C117.946 58.1775 117.764 57.9951 117.539 57.9951Z" fill="white"/>
                    <path opacity="0.3" d="M117.539 55.2057H111.468C111.243 55.2057 111.061 55.3881 111.061 55.613V56.5517C111.061 56.7767 111.243 56.9591 111.468 56.9591H117.539C117.764 56.9591 117.946 56.7767 117.946 56.5517V55.613C117.946 55.3881 117.764 55.2057 117.539 55.2057Z" fill="white"/>
                    <path opacity="0.3" d="M117.539 52.4206H111.468C111.243 52.4206 111.061 52.603 111.061 52.8279V53.7666C111.061 53.9916 111.243 54.174 111.468 54.174H117.539C117.764 54.174 117.946 53.9916 117.946 53.7666V52.8279C117.946 52.603 117.764 52.4206 117.539 52.4206Z" fill="white"/>
                    <path opacity="0.3" d="M117.539 49.6356H111.468C111.243 49.6356 111.061 49.8179 111.061 50.0429V50.9816C111.061 51.2066 111.243 51.3889 111.468 51.3889H117.539C117.764 51.3889 117.946 51.2066 117.946 50.9816V50.0429C117.946 49.8179 117.764 49.6356 117.539 49.6356Z" fill="white"/>
                    <path opacity="0.3" d="M117.539 46.8461H111.468C111.243 46.8461 111.061 47.0285 111.061 47.2534V48.1921C111.061 48.4171 111.243 48.5995 111.468 48.5995H117.539C117.764 48.5995 117.946 48.4171 117.946 48.1921V47.2534C117.946 47.0285 117.764 46.8461 117.539 46.8461Z" fill="white"/>
                    <path opacity="0.3" d="M117.539 44.061H111.468C111.243 44.061 111.061 44.2434 111.061 44.4684V45.4071C111.061 45.632 111.243 45.8144 111.468 45.8144H117.539C117.764 45.8144 117.946 45.632 117.946 45.4071V44.4684C117.946 44.2434 117.764 44.061 117.539 44.061Z" fill="white"/>
                    <path opacity="0.3" d="M117.539 41.2715H111.468C111.243 41.2715 111.061 41.4539 111.061 41.6789V42.6176C111.061 42.8426 111.243 43.0249 111.468 43.0249H117.539C117.764 43.0249 117.946 42.8426 117.946 42.6176V41.6789C117.946 41.4539 117.764 41.2715 117.539 41.2715Z" fill="white"/>
                    <path opacity="0.3" d="M117.54 38.4865H111.469C111.244 38.4865 111.062 38.6689 111.062 38.8939V39.8325C111.062 40.0575 111.244 40.2399 111.469 40.2399H117.54C117.765 40.2399 117.947 40.0575 117.947 39.8325V38.8939C117.947 38.6689 117.765 38.4865 117.54 38.4865Z" fill="white"/>
                    </g>
                    <g opacity="0.5">
                    <path opacity="0.3" d="M127.492 66.3546H121.421C121.196 66.3546 121.014 66.537 121.014 66.762V67.7007C121.014 67.9256 121.196 68.108 121.421 68.108H127.492C127.717 68.108 127.899 67.9256 127.899 67.7007V66.762C127.899 66.537 127.717 66.3546 127.492 66.3546Z" fill="white"/>
                    <path opacity="0.3" d="M127.492 63.5696H121.421C121.196 63.5696 121.014 63.7519 121.014 63.9769V64.9156C121.014 65.1406 121.196 65.323 121.421 65.323H127.492C127.717 65.323 127.899 65.1406 127.899 64.9156V63.9769C127.899 63.7519 127.717 63.5696 127.492 63.5696Z" fill="white"/>
                    <path opacity="0.3" d="M127.492 60.7802H121.421C121.196 60.7802 121.014 60.9625 121.014 61.1875V62.1262C121.014 62.3511 121.196 62.5335 121.421 62.5335H127.492C127.717 62.5335 127.899 62.3511 127.899 62.1262V61.1875C127.899 60.9625 127.717 60.7802 127.492 60.7802Z" fill="white"/>
                    <path opacity="0.3" d="M127.492 57.9951H121.421C121.196 57.9951 121.014 58.1775 121.014 58.4024V59.3411C121.014 59.5661 121.196 59.7484 121.421 59.7484H127.492C127.717 59.7484 127.899 59.5661 127.899 59.3411V58.4024C127.899 58.1775 127.717 57.9951 127.492 57.9951Z" fill="white"/>
                    <path opacity="0.3" d="M127.492 55.2056H121.422C121.197 55.2056 121.014 55.388 121.014 55.613V56.5516C121.014 56.7766 121.197 56.959 121.422 56.959H127.492C127.717 56.959 127.9 56.7766 127.9 56.5516V55.613C127.9 55.388 127.717 55.2056 127.492 55.2056Z" fill="white"/>
                    </g>
                    <g opacity="0.5">
                    <path opacity="0.3" d="M137.158 66.3546H131.088C130.863 66.3546 130.68 66.537 130.68 66.7619V67.7006C130.68 67.9256 130.863 68.1079 131.088 68.1079H137.158C137.383 68.1079 137.566 67.9256 137.566 67.7006V66.7619C137.566 66.537 137.383 66.3546 137.158 66.3546Z" fill="white"/>
                    <path opacity="0.3" d="M137.158 63.5695H131.088C130.863 63.5695 130.68 63.7519 130.68 63.9769V64.9155C130.68 65.1405 130.863 65.3229 131.088 65.3229H137.158C137.383 65.3229 137.566 65.1405 137.566 64.9155V63.9769C137.566 63.7519 137.383 63.5695 137.158 63.5695Z" fill="white"/>
                    <path opacity="0.3" d="M137.158 60.7801H131.088C130.863 60.7801 130.68 60.9625 130.68 61.1874V62.1261C130.68 62.3511 130.863 62.5335 131.088 62.5335H137.158C137.383 62.5335 137.566 62.3511 137.566 62.1261V61.1874C137.566 60.9625 137.383 60.7801 137.158 60.7801Z" fill="white"/>
                    <path opacity="0.3" d="M137.158 57.995H131.088C130.863 57.995 130.68 58.1774 130.68 58.4024V59.341C130.68 59.566 130.863 59.7484 131.088 59.7484H137.158C137.383 59.7484 137.566 59.566 137.566 59.341V58.4024C137.566 58.1774 137.383 57.995 137.158 57.995Z" fill="white"/>
                    <path opacity="0.3" d="M137.158 55.2056H131.088C130.863 55.2056 130.68 55.3879 130.68 55.6129V56.5516C130.68 56.7766 130.863 56.959 131.088 56.959H137.158C137.383 56.959 137.566 56.7766 137.566 56.5516V55.6129C137.566 55.3879 137.383 55.2056 137.158 55.2056Z" fill="white"/>
                    <path opacity="0.3" d="M137.158 52.4205H131.088C130.863 52.4205 130.68 52.6029 130.68 52.8279V53.7666C130.68 53.9915 130.863 54.1739 131.088 54.1739H137.158C137.383 54.1739 137.566 53.9915 137.566 53.7666V52.8279C137.566 52.6029 137.383 52.4205 137.158 52.4205Z" fill="white"/>
                    <path opacity="0.3" d="M137.158 49.6354H131.088C130.863 49.6354 130.68 49.8178 130.68 50.0428V50.9815C130.68 51.2064 130.863 51.3888 131.088 51.3888H137.158C137.383 51.3888 137.566 51.2064 137.566 50.9815V50.0428C137.566 49.8178 137.383 49.6354 137.158 49.6354Z" fill="white"/>
                    <path opacity="0.3" d="M137.158 46.8459H131.088C130.863 46.8459 130.68 47.0283 130.68 47.2533V48.192C130.68 48.417 130.863 48.5993 131.088 48.5993H137.158C137.383 48.5993 137.566 48.417 137.566 48.192V47.2533C137.566 47.0283 137.383 46.8459 137.158 46.8459Z" fill="white"/>
                    <path opacity="0.3" d="M137.158 44.061H131.088C130.863 44.061 130.681 44.2433 130.681 44.4683V45.407C130.681 45.632 130.863 45.8144 131.088 45.8144H137.158C137.383 45.8144 137.566 45.632 137.566 45.407V44.4683C137.566 44.2433 137.383 44.061 137.158 44.061Z" fill="white"/>
                    </g>
                    <g opacity="0.5">
                    <path opacity="0.3" d="M146.138 66.3547H140.067C139.842 66.3547 139.66 66.5371 139.66 66.762V67.7007C139.66 67.9257 139.842 68.1081 140.067 68.1081H146.138C146.363 68.1081 146.545 67.9257 146.545 67.7007V66.762C146.545 66.5371 146.363 66.3547 146.138 66.3547Z" fill="white"/>
                    <path opacity="0.3" d="M146.138 63.5696H140.067C139.842 63.5696 139.66 63.752 139.66 63.977V64.9157C139.66 65.1406 139.842 65.323 140.067 65.323H146.138C146.363 65.323 146.545 65.1406 146.545 64.9157V63.977C146.545 63.752 146.363 63.5696 146.138 63.5696Z" fill="white"/>
                    <path opacity="0.3" d="M146.138 60.7802H140.067C139.842 60.7802 139.66 60.9625 139.66 61.1875V62.1262C139.66 62.3511 139.842 62.5335 140.067 62.5335H146.138C146.363 62.5335 146.545 62.3511 146.545 62.1262V61.1875C146.545 60.9625 146.363 60.7802 146.138 60.7802Z" fill="white"/>
                    <path opacity="0.3" d="M146.138 57.9951H140.067C139.842 57.9951 139.66 58.1775 139.66 58.4025V59.3412C139.66 59.5661 139.842 59.7485 140.067 59.7485H146.138C146.363 59.7485 146.545 59.5661 146.545 59.3412V58.4025C146.545 58.1775 146.363 57.9951 146.138 57.9951Z" fill="white"/>
                    <path opacity="0.3" d="M146.138 55.2056H140.067C139.842 55.2056 139.66 55.388 139.66 55.613V56.5516C139.66 56.7766 139.842 56.959 140.067 56.959H146.138C146.363 56.959 146.545 56.7766 146.545 56.5516V55.613C146.545 55.388 146.363 55.2056 146.138 55.2056Z" fill="white"/>
                    <path opacity="0.3" d="M146.138 52.4206H140.067C139.842 52.4206 139.66 52.603 139.66 52.8279V53.7666C139.66 53.9916 139.842 54.174 140.067 54.174H146.138C146.363 54.174 146.545 53.9916 146.545 53.7666V52.8279C146.545 52.603 146.363 52.4206 146.138 52.4206Z" fill="white"/>
                    <path opacity="0.3" d="M146.138 49.6355H140.067C139.842 49.6355 139.66 49.8179 139.66 50.0428V50.9815C139.66 51.2065 139.842 51.3889 140.067 51.3889H146.138C146.363 51.3889 146.545 51.2065 146.545 50.9815V50.0428C146.545 49.8179 146.363 49.6355 146.138 49.6355Z" fill="white"/>
                    <path opacity="0.3" d="M146.138 46.8461H140.067C139.842 46.8461 139.66 47.0285 139.66 47.2534V48.1921C139.66 48.4171 139.842 48.5995 140.067 48.5995H146.138C146.362 48.5995 146.545 48.4171 146.545 48.1921V47.2534C146.545 47.0285 146.362 46.8461 146.138 46.8461Z" fill="white"/>
                    </g>
                    <g opacity="0.5">
                    <path opacity="0.3" d="M44.7423 66.3547H38.6719C38.4469 66.3547 38.2645 66.5371 38.2645 66.762V67.7007C38.2645 67.9257 38.4469 68.1081 38.6719 68.1081H44.7423C44.9673 68.1081 45.1496 67.9257 45.1496 67.7007V66.762C45.1496 66.5371 44.9673 66.3547 44.7423 66.3547Z" fill="white"/>
                    <path opacity="0.3" d="M44.7423 63.5696H38.6719C38.4469 63.5696 38.2645 63.7519 38.2645 63.9769V64.9156C38.2645 65.1406 38.4469 65.323 38.6719 65.323H44.7423C44.9673 65.323 45.1496 65.1406 45.1496 64.9156V63.9769C45.1496 63.7519 44.9673 63.5696 44.7423 63.5696Z" fill="white"/>
                    <path opacity="0.3" d="M44.7423 60.7802H38.6719C38.4469 60.7802 38.2645 60.9625 38.2645 61.1875V62.1262C38.2645 62.3511 38.4469 62.5335 38.6719 62.5335H44.7423C44.9673 62.5335 45.1496 62.3511 45.1496 62.1262V61.1875C45.1496 60.9625 44.9673 60.7802 44.7423 60.7802Z" fill="white"/>
                    <path opacity="0.3" d="M44.7423 57.9951H38.6719C38.4469 57.9951 38.2645 58.1775 38.2645 58.4024V59.3411C38.2645 59.5661 38.4469 59.7484 38.6719 59.7484H44.7423C44.9673 59.7484 45.1496 59.5661 45.1496 59.3411V58.4024C45.1496 58.1775 44.9673 57.9951 44.7423 57.9951Z" fill="white"/>
                    <path opacity="0.3" d="M44.7423 55.2057H38.6719C38.4469 55.2057 38.2645 55.3881 38.2645 55.613V56.5517C38.2645 56.7767 38.4469 56.9591 38.6719 56.9591H44.7423C44.9673 56.9591 45.1496 56.7767 45.1496 56.5517V55.613C45.1496 55.3881 44.9673 55.2057 44.7423 55.2057Z" fill="white"/>
                    <path opacity="0.3" d="M44.7423 52.4206H38.6719C38.4469 52.4206 38.2645 52.603 38.2645 52.8279V53.7666C38.2645 53.9916 38.4469 54.174 38.6719 54.174H44.7423C44.9673 54.174 45.1496 53.9916 45.1496 53.7666V52.8279C45.1496 52.603 44.9673 52.4206 44.7423 52.4206Z" fill="white"/>
                    <path opacity="0.3" d="M44.7423 49.6356H38.6719C38.4469 49.6356 38.2645 49.8179 38.2645 50.0429V50.9816C38.2645 51.2066 38.4469 51.3889 38.6719 51.3889H44.7423C44.9673 51.3889 45.1496 51.2066 45.1496 50.9816V50.0429C45.1496 49.8179 44.9673 49.6356 44.7423 49.6356Z" fill="white"/>
                    <path opacity="0.3" d="M44.7423 46.8461H38.6719C38.4469 46.8461 38.2645 47.0285 38.2645 47.2534V48.1921C38.2645 48.4171 38.4469 48.5995 38.6719 48.5995H44.7423C44.9673 48.5995 45.1496 48.4171 45.1496 48.1921V47.2534C45.1496 47.0285 44.9673 46.8461 44.7423 46.8461Z" fill="white"/>
                    <path opacity="0.3" d="M44.7423 44.061H38.6719C38.4469 44.061 38.2645 44.2434 38.2645 44.4684V45.4071C38.2645 45.632 38.4469 45.8144 38.6719 45.8144H44.7423C44.9673 45.8144 45.1496 45.632 45.1496 45.4071V44.4684C45.1496 44.2434 44.9673 44.061 44.7423 44.061Z" fill="white"/>
                    <path opacity="0.3" d="M44.7423 41.2715H38.6719C38.4469 41.2715 38.2645 41.4539 38.2645 41.6789V42.6176C38.2645 42.8426 38.4469 43.0249 38.6719 43.0249H44.7423C44.9673 43.0249 45.1496 42.8426 45.1496 42.6176V41.6789C45.1496 41.4539 44.9673 41.2715 44.7423 41.2715Z" fill="white"/>
                    <path opacity="0.3" d="M44.7423 38.4866H38.6719C38.4469 38.4866 38.2645 38.6689 38.2645 38.8939V39.8326C38.2645 40.0576 38.4469 40.24 38.6719 40.24H44.7423C44.9673 40.24 45.1496 40.0576 45.1496 39.8326V38.8939C45.1496 38.6689 44.9673 38.4866 44.7423 38.4866Z" fill="white"/>
                    <path opacity="0.3" d="M44.7423 35.7015H38.6719C38.4469 35.7015 38.2645 35.8838 38.2645 36.1088V37.0475C38.2645 37.2725 38.4469 37.4549 38.6719 37.4549H44.7423C44.9673 37.4549 45.1496 37.2725 45.1496 37.0475V36.1088C45.1496 35.8838 44.9673 35.7015 44.7423 35.7015Z" fill="white"/>
                    <path opacity="0.3" d="M44.7423 32.912H38.6719C38.4469 32.912 38.2645 33.0944 38.2645 33.3193V34.258C38.2645 34.483 38.4469 34.6654 38.6719 34.6654H44.7423C44.9673 34.6654 45.1496 34.483 45.1496 34.258V33.3193C45.1496 33.0944 44.9673 32.912 44.7423 32.912Z" fill="white"/>
                    <path opacity="0.3" d="M44.7423 30.127H38.6719C38.4469 30.127 38.2645 30.3093 38.2645 30.5343V31.473C38.2645 31.6979 38.4469 31.8803 38.6719 31.8803H44.7423C44.9673 31.8803 45.1496 31.6979 45.1496 31.473V30.5343C45.1496 30.3093 44.9673 30.127 44.7423 30.127Z" fill="white"/>
                    <path opacity="0.3" d="M44.7423 27.342H38.6719C38.4469 27.342 38.2645 27.5244 38.2645 27.7493V28.688C38.2645 28.913 38.4469 29.0954 38.6719 29.0954H44.7423C44.9673 29.0954 45.1496 28.913 45.1496 28.688V27.7493C45.1496 27.5244 44.9673 27.342 44.7423 27.342Z" fill="white"/>
                    <path opacity="0.3" d="M44.7423 24.5524H38.6719C38.4469 24.5524 38.2645 24.7348 38.2645 24.9598V25.8984C38.2645 26.1234 38.4469 26.3058 38.6719 26.3058H44.7423C44.9673 26.3058 45.1496 26.1234 45.1496 25.8984V24.9598C45.1496 24.7348 44.9673 24.5524 44.7423 24.5524Z" fill="white"/>
                    <path opacity="0.3" d="M44.7423 21.7675H38.6719C38.4469 21.7675 38.2645 21.9498 38.2645 22.1748V23.1135C38.2645 23.3385 38.4469 23.5208 38.6719 23.5208H44.7423C44.9673 23.5208 45.1496 23.3385 45.1496 23.1135V22.1748C45.1496 21.9498 44.9673 21.7675 44.7423 21.7675Z" fill="white"/>
                    <path opacity="0.3" d="M44.7423 18.9824H38.6719C38.4469 18.9824 38.2645 19.1648 38.2645 19.3898V20.3285C38.2645 20.5534 38.4469 20.7358 38.6719 20.7358H44.7423C44.9673 20.7358 45.1496 20.5534 45.1496 20.3285V19.3898C45.1496 19.1648 44.9673 18.9824 44.7423 18.9824Z" fill="white"/>
                    <path opacity="0.3" d="M44.7423 16.1929H38.6719C38.4469 16.1929 38.2645 16.3752 38.2645 16.6002V17.5389C38.2645 17.7639 38.4469 17.9462 38.6719 17.9462H44.7423C44.9673 17.9462 45.1496 17.7639 45.1496 17.5389V16.6002C45.1496 16.3752 44.9673 16.1929 44.7423 16.1929Z" fill="white"/>
                    </g>
                    <g opacity="0.5">
                    <path opacity="0.3" d="M35.0768 66.3546H29.0064C28.7814 66.3546 28.599 66.537 28.599 66.762V67.7007C28.599 67.9256 28.7814 68.108 29.0064 68.108H35.0768C35.3017 68.108 35.4841 67.9256 35.4841 67.7007V66.762C35.4841 66.537 35.3017 66.3546 35.0768 66.3546Z" fill="white"/>
                    <path opacity="0.3" d="M35.0768 63.5696H29.0064C28.7814 63.5696 28.599 63.752 28.599 63.977V64.9157C28.599 65.1406 28.7814 65.323 29.0064 65.323H35.0768C35.3017 65.323 35.4841 65.1406 35.4841 64.9157V63.977C35.4841 63.752 35.3017 63.5696 35.0768 63.5696Z" fill="white"/>
                    <path opacity="0.3" d="M35.0768 60.7801H29.0064C28.7814 60.7801 28.599 60.9625 28.599 61.1874V62.1261C28.599 62.3511 28.7814 62.5335 29.0064 62.5335H35.0768C35.3017 62.5335 35.4841 62.3511 35.4841 62.1261V61.1874C35.4841 60.9625 35.3017 60.7801 35.0768 60.7801Z" fill="white"/>
                    <path opacity="0.3" d="M35.0768 57.9951H29.0064C28.7814 57.9951 28.599 58.1775 28.599 58.4025V59.3412C28.599 59.5661 28.7814 59.7485 29.0064 59.7485H35.0768C35.3017 59.7485 35.4841 59.5661 35.4841 59.3412V58.4025C35.4841 58.1775 35.3017 57.9951 35.0768 57.9951Z" fill="white"/>
                    <path opacity="0.3" d="M35.0768 55.2057H29.0064C28.7814 55.2057 28.599 55.3881 28.599 55.613V56.5517C28.599 56.7767 28.7814 56.9591 29.0064 56.9591H35.0768C35.3017 56.9591 35.4841 56.7767 35.4841 56.5517V55.613C35.4841 55.3881 35.3017 55.2057 35.0768 55.2057Z" fill="white"/>
                    <path opacity="0.3" d="M35.0768 52.4206H29.0064C28.7814 52.4206 28.599 52.603 28.599 52.8279V53.7666C28.599 53.9916 28.7814 54.174 29.0064 54.174H35.0768C35.3017 54.174 35.4841 53.9916 35.4841 53.7666V52.8279C35.4841 52.603 35.3017 52.4206 35.0768 52.4206Z" fill="white"/>
                    <path opacity="0.3" d="M35.0768 49.6356H29.0064C28.7814 49.6356 28.599 49.8179 28.599 50.0429V50.9816C28.599 51.2066 28.7814 51.3889 29.0064 51.3889H35.0768C35.3017 51.3889 35.4841 51.2066 35.4841 50.9816V50.0429C35.4841 49.8179 35.3017 49.6356 35.0768 49.6356Z" fill="white"/>
                    <path opacity="0.3" d="M35.0768 46.8461H29.0064C28.7814 46.8461 28.599 47.0285 28.599 47.2534V48.1921C28.599 48.4171 28.7814 48.5995 29.0064 48.5995H35.0768C35.3017 48.5995 35.4841 48.4171 35.4841 48.1921V47.2534C35.4841 47.0285 35.3017 46.8461 35.0768 46.8461Z" fill="white"/>
                    <path opacity="0.3" d="M35.0768 44.061H29.0064C28.7814 44.061 28.599 44.2434 28.599 44.4684V45.4071C28.599 45.632 28.7814 45.8144 29.0064 45.8144H35.0768C35.3017 45.8144 35.4841 45.632 35.4841 45.4071V44.4684C35.4841 44.2434 35.3017 44.061 35.0768 44.061Z" fill="white"/>
                    <path opacity="0.3" d="M35.0768 41.2715H29.0064C28.7814 41.2715 28.599 41.4539 28.599 41.6789V42.6176C28.599 42.8426 28.7814 43.0249 29.0064 43.0249H35.0768C35.3017 43.0249 35.4841 42.8426 35.4841 42.6176V41.6789C35.4841 41.4539 35.3017 41.2715 35.0768 41.2715Z" fill="white"/>
                    <path opacity="0.3" d="M35.0773 38.4865H29.0068C28.7819 38.4865 28.5995 38.6689 28.5995 38.8939V39.8325C28.5995 40.0575 28.7819 40.2399 29.0068 40.2399H35.0773C35.3022 40.2399 35.4846 40.0575 35.4846 39.8325V38.8939C35.4846 38.6689 35.3022 38.4865 35.0773 38.4865Z" fill="white"/>
                    </g>
                    <g opacity="0.5">
                    <path opacity="0.3" d="M25.1229 66.3546H19.0524C18.8275 66.3546 18.6451 66.537 18.6451 66.762V67.7007C18.6451 67.9256 18.8275 68.108 19.0524 68.108H25.1229C25.3478 68.108 25.5302 67.9256 25.5302 67.7007V66.762C25.5302 66.537 25.3478 66.3546 25.1229 66.3546Z" fill="white"/>
                    <path opacity="0.3" d="M25.1229 63.5696H19.0524C18.8275 63.5696 18.6451 63.7519 18.6451 63.9769V64.9156C18.6451 65.1406 18.8275 65.323 19.0524 65.323H25.1229C25.3478 65.323 25.5302 65.1406 25.5302 64.9156V63.9769C25.5302 63.7519 25.3478 63.5696 25.1229 63.5696Z" fill="white"/>
                    <path opacity="0.3" d="M25.1229 60.7802H19.0524C18.8275 60.7802 18.6451 60.9625 18.6451 61.1875V62.1262C18.6451 62.3511 18.8275 62.5335 19.0524 62.5335H25.1229C25.3478 62.5335 25.5302 62.3511 25.5302 62.1262V61.1875C25.5302 60.9625 25.3478 60.7802 25.1229 60.7802Z" fill="white"/>
                    <path opacity="0.3" d="M25.1229 57.9951H19.0524C18.8275 57.9951 18.6451 58.1775 18.6451 58.4024V59.3411C18.6451 59.5661 18.8275 59.7484 19.0524 59.7484H25.1229C25.3478 59.7484 25.5302 59.5661 25.5302 59.3411V58.4024C25.5302 58.1775 25.3478 57.9951 25.1229 57.9951Z" fill="white"/>
                    <path opacity="0.3" d="M25.1233 55.2056H19.0529C18.8279 55.2056 18.6455 55.388 18.6455 55.613V56.5516C18.6455 56.7766 18.8279 56.959 19.0529 56.959H25.1233C25.3483 56.959 25.5306 56.7766 25.5306 56.5516V55.613C25.5306 55.388 25.3483 55.2056 25.1233 55.2056Z" fill="white"/>
                    </g>
                    <g opacity="0.5">
                    <path opacity="0.3" d="M15.4573 66.3546H9.38691C9.16194 66.3546 8.97955 66.537 8.97955 66.7619V67.7006C8.97955 67.9256 9.16194 68.1079 9.38691 68.1079H15.4573C15.6823 68.1079 15.8647 67.9256 15.8647 67.7006V66.7619C15.8647 66.537 15.6823 66.3546 15.4573 66.3546Z" fill="white"/>
                    <path opacity="0.3" d="M15.4573 63.5695H9.38691C9.16194 63.5695 8.97955 63.7519 8.97955 63.9769V64.9155C8.97955 65.1405 9.16194 65.3229 9.38691 65.3229H15.4573C15.6823 65.3229 15.8647 65.1405 15.8647 64.9155V63.9769C15.8647 63.7519 15.6823 63.5695 15.4573 63.5695Z" fill="white"/>
                    <path opacity="0.3" d="M15.4573 60.7801H9.38691C9.16194 60.7801 8.97955 60.9625 8.97955 61.1874V62.1261C8.97955 62.3511 9.16194 62.5335 9.38691 62.5335H15.4573C15.6823 62.5335 15.8647 62.3511 15.8647 62.1261V61.1874C15.8647 60.9625 15.6823 60.7801 15.4573 60.7801Z" fill="white"/>
                    <path opacity="0.3" d="M15.4573 57.995H9.38691C9.16194 57.995 8.97955 58.1774 8.97955 58.4024V59.341C8.97955 59.566 9.16194 59.7484 9.38691 59.7484H15.4573C15.6823 59.7484 15.8647 59.566 15.8647 59.341V58.4024C15.8647 58.1774 15.6823 57.995 15.4573 57.995Z" fill="white"/>
                    <path opacity="0.3" d="M15.4573 55.2056H9.38691C9.16194 55.2056 8.97955 55.3879 8.97955 55.6129V56.5516C8.97955 56.7766 9.16194 56.959 9.38691 56.959H15.4573C15.6823 56.959 15.8647 56.7766 15.8647 56.5516V55.6129C15.8647 55.3879 15.6823 55.2056 15.4573 55.2056Z" fill="white"/>
                    <path opacity="0.3" d="M15.4573 52.4205H9.38691C9.16194 52.4205 8.97955 52.6029 8.97955 52.8279V53.7666C8.97955 53.9915 9.16194 54.1739 9.38691 54.1739H15.4573C15.6823 54.1739 15.8647 53.9915 15.8647 53.7666V52.8279C15.8647 52.6029 15.6823 52.4205 15.4573 52.4205Z" fill="white"/>
                    <path opacity="0.3" d="M15.4573 49.6354H9.38691C9.16194 49.6354 8.97955 49.8178 8.97955 50.0428V50.9815C8.97955 51.2064 9.16194 51.3888 9.38691 51.3888H15.4573C15.6823 51.3888 15.8647 51.2064 15.8647 50.9815V50.0428C15.8647 49.8178 15.6823 49.6354 15.4573 49.6354Z" fill="white"/>
                    <path opacity="0.3" d="M15.4573 46.8459H9.38691C9.16194 46.8459 8.97955 47.0283 8.97955 47.2533V48.192C8.97955 48.417 9.16194 48.5993 9.38691 48.5993H15.4573C15.6823 48.5993 15.8647 48.417 15.8647 48.192V47.2533C15.8647 47.0283 15.6823 46.8459 15.4573 46.8459Z" fill="white"/>
                    <path opacity="0.3" d="M15.4576 44.061H9.38722C9.16224 44.061 8.97986 44.2433 8.97986 44.4683V45.407C8.97986 45.632 9.16224 45.8144 9.38722 45.8144H15.4576C15.6826 45.8144 15.865 45.632 15.865 45.407V44.4683C15.865 44.2433 15.6826 44.061 15.4576 44.061Z" fill="white"/>
                    </g>
                    <g opacity="0.5">
                    <path opacity="0.3" d="M6.47777 66.3547H0.407357C0.182383 66.3547 0 66.5371 0 66.762V67.7007C0 67.9257 0.182383 68.1081 0.407357 68.1081H6.47777C6.70275 68.1081 6.88512 67.9257 6.88512 67.7007V66.762C6.88512 66.5371 6.70275 66.3547 6.47777 66.3547Z" fill="white"/>
                    <path opacity="0.3" d="M6.47777 63.5696H0.407357C0.182383 63.5696 0 63.752 0 63.977V64.9157C0 65.1406 0.182383 65.323 0.407357 65.323H6.47777C6.70275 65.323 6.88512 65.1406 6.88512 64.9157V63.977C6.88512 63.752 6.70275 63.5696 6.47777 63.5696Z" fill="white"/>
                    <path opacity="0.3" d="M6.47777 60.7802H0.407357C0.182383 60.7802 0 60.9625 0 61.1875V62.1262C0 62.3511 0.182383 62.5335 0.407357 62.5335H6.47777C6.70275 62.5335 6.88512 62.3511 6.88512 62.1262V61.1875C6.88512 60.9625 6.70275 60.7802 6.47777 60.7802Z" fill="white"/>
                    <path opacity="0.3" d="M6.47777 57.9951H0.407357C0.182383 57.9951 0 58.1775 0 58.4025V59.3412C0 59.5661 0.182383 59.7485 0.407357 59.7485H6.47777C6.70275 59.7485 6.88512 59.5661 6.88512 59.3412V58.4025C6.88512 58.1775 6.70275 57.9951 6.47777 57.9951Z" fill="white"/>
                    <path opacity="0.3" d="M6.47777 55.2056H0.407357C0.182383 55.2056 0 55.388 0 55.613V56.5516C0 56.7766 0.182383 56.959 0.407357 56.959H6.47777C6.70275 56.959 6.88512 56.7766 6.88512 56.5516V55.613C6.88512 55.388 6.70275 55.2056 6.47777 55.2056Z" fill="white"/>
                    <path opacity="0.3" d="M6.47777 52.4206H0.407357C0.182383 52.4206 0 52.603 0 52.8279V53.7666C0 53.9916 0.182383 54.174 0.407357 54.174H6.47777C6.70275 54.174 6.88512 53.9916 6.88512 53.7666V52.8279C6.88512 52.603 6.70275 52.4206 6.47777 52.4206Z" fill="white"/>
                    <path opacity="0.3" d="M6.47777 49.6355H0.407357C0.182383 49.6355 0 49.8179 0 50.0428V50.9815C0 51.2065 0.182383 51.3889 0.407357 51.3889H6.47777C6.70275 51.3889 6.88512 51.2065 6.88512 50.9815V50.0428C6.88512 49.8179 6.70275 49.6355 6.47777 49.6355Z" fill="white"/>
                    <path opacity="0.3" d="M6.47851 46.8461H0.40809C0.183116 46.8461 0.000732422 47.0285 0.000732422 47.2534V48.1921C0.000732422 48.4171 0.183116 48.5995 0.40809 48.5995H6.47851C6.70348 48.5995 6.88586 48.4171 6.88586 48.1921V47.2534C6.88586 47.0285 6.70348 46.8461 6.47851 46.8461Z" fill="white"/>
                    </g>
                    <path d="M82.2284 21.9983C81.9956 21.9993 81.765 21.9524 81.5498 21.8601C81.3347 21.7679 81.1394 21.6323 80.9752 21.4611C80.1255 20.579 79.1165 19.8792 78.0058 19.4017C76.8951 18.9242 75.7045 18.6785 74.5021 18.6785C73.2998 18.6785 72.1092 18.9242 70.9985 19.4017C69.8878 19.8792 68.8787 20.579 68.029 21.4611C67.6963 21.8061 67.245 22 66.7744 22C66.3038 22 65.8525 21.8061 65.5197 21.4611C65.1869 21.116 65 20.6481 65 20.1601C65 19.6721 65.1869 19.2041 65.5197 18.8591C66.6988 17.6356 68.0989 16.6651 69.6399 16.003C71.1809 15.3408 72.8326 15 74.5007 15C76.1687 15 77.8205 15.3408 79.3615 16.003C80.9024 16.6651 82.3025 17.6356 83.4817 18.8591C83.7293 19.1164 83.8978 19.4439 83.9661 19.8004C84.0343 20.1569 83.9992 20.5264 83.8651 20.8623C83.731 21.1981 83.504 21.4852 83.2127 21.6874C82.9215 21.8896 82.579 21.9978 82.2284 21.9983V21.9983Z" fill="white"/>
                    <path d="M60.734 16.9983C60.3909 16.9977 60.0557 16.8865 59.7706 16.6787C59.4855 16.471 59.2633 16.1759 59.132 15.8308C59.0008 15.4857 58.9664 15.106 59.0332 14.7396C59.1 14.3732 59.265 14.0366 59.5073 13.7722C61.4744 11.6255 63.8111 9.92232 66.3837 8.76024C68.9563 7.59816 71.7141 7 74.4993 7C77.2845 7 80.0424 7.59816 82.615 8.76024C85.1875 9.92232 87.5242 11.6255 89.4913 13.7722C89.817 14.1268 90 14.6077 90 15.1092C90 15.6107 89.817 16.0916 89.4913 16.4462C89.33 16.6218 89.1386 16.761 88.9279 16.8561C88.7171 16.9511 88.4913 17 88.2632 17C87.8026 17 87.3609 16.8008 87.0351 16.4462C85.3898 14.6522 83.4358 13.2289 81.2848 12.2578C79.1337 11.2867 76.828 10.7869 74.4993 10.7869C72.1707 10.7869 69.8649 11.2867 67.7139 12.2578C65.5629 13.2289 63.6088 14.6522 61.9635 16.4462C61.8021 16.6219 61.6104 16.7612 61.3994 16.8559C61.1884 16.9507 60.9623 16.999 60.734 16.9983V16.9983Z" fill="white"/>
                    <path d="M93.3165 10.9985C93.0954 10.9988 92.8764 10.957 92.672 10.8754C92.4676 10.7938 92.282 10.674 92.1256 10.5229C89.748 8.21963 86.9232 6.39218 83.8133 5.14529C80.7033 3.89839 77.3692 3.25656 74.002 3.25656C70.6348 3.25656 67.3007 3.89839 64.1908 5.14529C61.0808 6.39218 58.2561 8.21963 55.8784 10.5229C55.5622 10.8284 55.1333 11 54.6861 11C54.239 11 53.8101 10.8284 53.4939 10.5229C53.1776 10.2174 53 9.80313 53 9.37112C53 8.93912 53.1776 8.52481 53.4939 8.21933C56.1846 5.61389 59.3809 3.54678 62.8998 2.13638C66.4186 0.725984 70.1909 0 74.0007 0C77.8104 0 81.5827 0.725984 85.1015 2.13638C88.6204 3.54678 91.8167 5.61389 94.5074 8.21933C94.7427 8.4471 94.9029 8.73709 94.9677 9.05271C95.0326 9.36833 94.9992 9.69544 94.8718 9.99275C94.7444 10.2901 94.5287 10.5443 94.2519 10.7233C93.9751 10.9023 93.6496 10.998 93.3165 10.9985V10.9985Z" fill="white"/>
                    <path d="M81.5502 68.999H66.4498C66.2626 69.0051 66.0756 68.9838 65.9001 68.9364C65.7246 68.889 65.5642 68.8164 65.4287 68.723C65.2932 68.6296 65.1854 68.5174 65.1117 68.3932C65.038 68.2689 65 68.1352 65 68C65 67.8649 65.038 67.7311 65.1117 67.6068C65.1854 67.4826 65.2932 67.3704 65.4287 67.277C65.5642 67.1836 65.7246 67.111 65.9001 67.0636C66.0756 67.0162 66.2626 66.9949 66.4498 67.001H81.5502C81.7374 66.9949 81.9244 67.0162 82.0999 67.0636C82.2754 67.111 82.4358 67.1836 82.5713 67.277C82.7068 67.3704 82.8146 67.4826 82.8883 67.6068C82.962 67.7311 83 67.8649 83 68C83 68.1352 82.962 68.2689 82.8883 68.3932C82.8146 68.5174 82.7068 68.6296 82.5713 68.723C82.4358 68.8164 82.2754 68.889 82.0999 68.9364C81.9244 68.9838 81.7374 69.0051 81.5502 68.999V68.999Z" fill="white"/>
                    <path d="M74 69C73.7362 69 73.4831 68.8568 73.2958 68.6016C73.1085 68.3464 73.0022 67.9999 73 67.6375V56.3739C73 56.0095 73.1054 55.6601 73.2929 55.4024C73.4804 55.1447 73.7348 55 74 55C74.2652 55 74.5196 55.1447 74.7071 55.4024C74.8946 55.6601 75 56.0095 75 56.3739V67.6375C74.9978 67.9999 74.8915 68.3464 74.7042 68.6016C74.5169 68.8568 74.2638 69 74 69Z" fill="white"/>
                    <path d="M74.0763 58H73.9395C72.372 58.0008 70.8198 57.6508 69.3714 56.9701C67.9231 56.2893 66.607 55.2912 65.4982 54.0326C64.3895 52.774 63.5099 51.2796 62.9097 49.6348C62.3095 47.99 62.0003 46.227 62 44.4465C62 44.0629 62.1342 43.6949 62.373 43.4237C62.6118 43.1524 62.9357 43 63.2734 43C63.6111 43 63.935 43.1524 64.1738 43.4237C64.4126 43.6949 64.5468 44.0629 64.5468 44.4465C64.5475 47.2736 65.5365 49.9847 67.2963 51.9837C69.0562 53.9828 71.4428 55.1062 73.9316 55.107H74.0684C76.5572 55.1062 78.9438 53.9828 80.7037 51.9837C82.4635 49.9847 83.4525 47.2736 83.4532 44.4465C83.4532 44.0629 83.5874 43.6949 83.8262 43.4237C84.065 43.1524 84.3889 43 84.7266 43C85.0643 43 85.3882 43.1524 85.627 43.4237C85.8658 43.6949 86 44.0629 86 44.4465C85.9993 48.0409 84.742 51.4878 82.5045 54.0294C80.2671 56.571 77.2326 57.9992 74.0684 58H74.0763Z" fill="white"/>
                    <path d="M77.2543 44.4019V42.7031H81V41.0043H77.2543V39.3054H81V37.5956H77.2543V35.8968H81V34.1869H77.2543V32.4826H81V32.1692C81 30.2678 80.2701 28.4443 78.9708 27.0998C77.6715 25.7553 75.9092 25 74.0717 25H73.9336C72.0961 25 70.3339 25.7553 69.0346 27.0998C67.7353 28.4443 67.0053 30.2678 67.0053 32.1692V32.4826H70.7457V34.1814H67V35.8913H70.7404V37.5901H67V39.2999H70.7404V41.0043H67V42.7141H70.7404V44.4129H67V44.8445C67.0035 46.7435 67.735 48.5635 69.0339 49.905C70.3329 51.2466 72.0931 52 73.9283 52H74.0664C74.9765 52.0007 75.8778 51.8159 76.7188 51.4561C77.5598 51.0963 78.3241 50.5686 78.9679 49.9031C79.6118 49.2376 80.1227 48.4473 80.4714 47.5775C80.82 46.7076 80.9997 45.7752 81 44.8335V44.4019H77.2543Z" fill="white"/>
                    
            </g>
        </symbol>
</svg>